<?xml version="1.0"?>
<svg xmlns="http://www.w3.org/2000/svg" viewBox="0 0 200 200" role="img" aria-label="Fixfy mark"><title>Fixfy mark</title><path fill="currentColor" fill-rule="evenodd" d="M94 48L96.67 48L98 50.67L98 52L99.33 54L100 57.33L102.67 60.67L106 60.67L110.67 55.33L113.33 50.67L116 50.67L118 52L122.67 53.33L124 54.67L124 56L123.33 56.67L123.33 60L122.67 60.67L122.67 64.67L122 66L122.67 67.33L126 70L127.33 70L134.67 66L138.67 65.33L144 72L144 74L138 81.33L136.67 83.33L136.67 84.67L140 88.67L150.67 89.33L152 91.33L152 94.67L148.67 94.67L148 95.33L144 95.33L143.33 96L138.67 96L138 96.67L133.33 96.67L132.67 97.33L131.33 97.33L129.33 90L127.33 86L124 81.33L119.33 76.67L114.67 73.33L108.67 70.67L103.33 70L102.67 69.33L94.67 69.33L94 70L91.33 70L90.67 70.67L87.33 71.33L82 74L73.33 81.33L73.33 82L71.33 84L70 87.33L68.67 88.67L68.67 90L66.67 94.67L66.67 97.33L66 98L66 106L61.33 107.33L56.67 110L55.33 110L46.67 114L44.67 104.67L46 103.33L47.33 103.33L49.33 102L50.67 102L55.33 100L57.33 98L57.33 94.67L54.67 92L47.33 87.33L47.33 84.67L50 79.33L50 78L50.67 77.33L56 77.33L56.67 78L63.33 78.67L66 76L66.67 74L62 64.67L62 62L66 59.33L68.67 56.67L70.67 56.67L79.33 64L82 64L83.33 63.33L85.33 60.67L86 50L86.67 49.33L93.33 48.67L94 48ZM90 78L95.33 78.67L96 79.33L99.33 80L106 83.33L110.67 88L111.33 90L112.67 91.33L112.67 92.67L116.67 101.33L116.67 104L115.33 106.67L115.33 110L118.67 113.33L120.67 113.33L121.33 114L122 116.67L120.67 118.67L118 120L114.67 120.67L112.67 122L110 121.33L109.33 120L109.33 116.67L110.67 115.33L110.67 111.33L110 110L105.33 106L104 106L102 107.33L100 103.33L100 102L98 98.67L102.67 94.67L102.67 92L100 87.33L93.33 80.67L90.67 79.33L90 78ZM95.33 99.33L96 102L97.33 104L97.33 105.33L98.67 107.33L98.67 108.67L97.33 108.67L94 110.67L92.67 110.67L89.33 112.67L88 112.67L83.33 115.33L82 115.33L78.67 117.33L77.33 117.33L74.67 119.33L79.33 124L89.33 130L90.67 130L94 132L96 132L98 133.33L100.67 133.33L101.33 134L104 134L104.67 134.67L112 134.67L112.67 135.33L114 134.67L120.67 134.67L121.33 134L124 134L124.67 133.33L129.33 132.67L133.33 130.67L134.67 130.67L140 128L147.33 122.67L147.33 123.33L140 134.67L133.33 141.33L128 145.33L118.67 150L117.33 150L112.67 152L110.67 152L110 152.67L106.67 152.67L106 153.33L91.33 153.33L90.67 152.67L84.67 152L84 151.33L78.67 150L69.33 145.33L64 141.33L57.33 134.67L52.67 128L48.67 119.33L50.67 118L52 118L55.33 116L58.67 115.33L63.33 112.67L68 111.33L71.33 109.33L72.67 109.33L76 107.33L80.67 106L87.33 102.67L88.67 102.67L95.33 99.33Z"></path></svg>